<svg width="15" height="11" viewBox="0 0 15 11" fill="none" xmlns="http://www.w3.org/2000/svg">
<path d="M9.34498 0C9.56236 0 9.77998 0.0821376 9.94564 0.24365L14.7509 4.91658C15.083 5.2396 15.083 5.76261 14.7509 6.08481L9.94564 10.7577C9.61347 11.0808 9.07565 11.0808 8.74433 10.7577L8.67132 10.6867C8.33915 10.3637 8.33915 9.8407 8.67132 9.5185L11.9533 6.32684H0.849544C0.380595 6.32684 0 5.95673 0 5.50069C0 5.04465 0.380595 4.67454 0.849544 4.67454H11.9533L8.67132 1.48288C8.33915 1.15985 8.33915 0.636847 8.67132 0.314648L8.74433 0.24365C8.91042 0.0821376 9.12761 0 9.34498 0Z" fill="white"/>
</svg>
