<svg width="846" height="575" viewBox="0 0 846 575" fill="none" xmlns="http://www.w3.org/2000/svg">
<path fill-rule="evenodd" clip-rule="evenodd" d="M0 47C0 21.0426 21.0426 0 47 0L792.958 0C818.706 0 839.661 20.7165 839.955 46.4625L845.456 527.462C845.756 553.628 824.627 575 798.459 575H47C21.0426 575 0 553.957 0 528V47Z" fill="url(#paint0_linear)"/>
<mask id="mask0" mask-type="alpha" maskUnits="userSpaceOnUse" x="0" y="0" width="846" height="575">
<path fill-rule="evenodd" clip-rule="evenodd" d="M0 47C0 21.0426 21.0426 0 47 0L792.958 0C818.706 0 839.661 20.7165 839.955 46.4625L845.456 527.462C845.756 553.628 824.627 575 798.459 575H47C21.0426 575 0 553.957 0 528V47Z" fill="white"/>
</mask>
<g mask="url(#mask0)">
<path opacity="0.0651042" d="M456 428C456 585.953 327.953 714 170 714C12.0466 714 -116 585.953 -116 428C-116 270.047 12.0466 142 170 142C327.953 142 456 270.047 456 428Z" stroke="white" stroke-width="92"/>
<path opacity="0.13365" d="M356 428C356 530.725 272.725 614 170 614C67.275 614 -16 530.725 -16 428C-16 325.275 67.275 242 170 242C272.725 242 356 325.275 356 428Z" stroke="white" stroke-width="72"/>
</g>
<defs>
<linearGradient id="paint0_linear" x1="0" y1="0" x2="0" y2="575" gradientUnits="userSpaceOnUse">
<stop stop-color="#FF954D"/>
<stop offset="1" stop-color="#FB6600"/>
</linearGradient>
</defs>
</svg>
