<svg width="633" height="699" viewBox="0 0 633 699" fill="none" xmlns="http://www.w3.org/2000/svg">
<path fill-rule="evenodd" clip-rule="evenodd" d="M633 235.304C633 191.223 609.782 150.401 571.896 127.869L449.022 54.7911C396.014 23.2655 327.935 35.113 288.693 82.6924L106.898 303.114C53.6206 367.711 77.68 465.401 154.863 497.869L459.532 626.029C541.918 660.686 633 600.188 633 510.809L633 235.304Z" fill="#FFAE2F"/>
<path opacity="0.13365" d="M363.5 432C363.5 492.475 412.525 541.5 473 541.5C533.475 541.5 582.5 492.475 582.5 432C582.5 371.525 533.475 322.5 473 322.5C412.525 322.5 363.5 371.525 363.5 432Z" stroke="white" stroke-width="51"/>
</svg>
