<svg width="942" height="709" viewBox="0 0 942 709" fill="none" xmlns="http://www.w3.org/2000/svg">
<g filter="url(#filter0_d)">
<path fill-rule="evenodd" clip-rule="evenodd" d="M0 48H503.313C527.9 48 550.684 60.899 563.335 81.9809L847.1 554.845C865.099 584.838 843.494 623 808.515 623H0V48Z" fill="url(#paint0_linear)"/>
</g>
<mask id="mask0" mask-type="alpha" maskUnits="userSpaceOnUse" x="0" y="48" width="854" height="575">
<path fill-rule="evenodd" clip-rule="evenodd" d="M0 48H503.313C527.9 48 550.684 60.899 563.335 81.9809L847.1 554.845C865.099 584.838 843.494 623 808.515 623H0V48Z" fill="white"/>
</mask>
<g mask="url(#mask0)">
<path opacity="0.0651042" d="M508 401C508 558.953 379.953 687 222 687C64.0466 687 -64 558.953 -64 401C-64 243.047 64.0466 115 222 115C379.953 115 508 243.047 508 401Z" stroke="white" stroke-width="92"/>
<path opacity="0.13365" d="M408 401C408 503.725 324.725 587 222 587C119.275 587 36 503.725 36 401C36 298.275 119.275 215 222 215C324.725 215 408 298.275 408 401Z" stroke="white" stroke-width="72"/>
</g>
<defs>
<filter id="filter0_d" x="-46" y="0" width="987.584" height="709" filterUnits="userSpaceOnUse" color-interpolation-filters="sRGB">
<feFlood flood-opacity="0" result="BackgroundImageFix"/>
<feColorMatrix in="SourceAlpha" type="matrix" values="0 0 0 0 0 0 0 0 0 0 0 0 0 0 0 0 0 0 127 0"/>
<feOffset dx="21" dy="19"/>
<feGaussianBlur stdDeviation="33.5"/>
<feColorMatrix type="matrix" values="0 0 0 0 1 0 0 0 0 0.541176 0 0 0 0 0.227451 0 0 0 0.938538 0"/>
<feBlend mode="normal" in2="BackgroundImageFix" result="effect1_dropShadow"/>
<feBlend mode="normal" in="SourceGraphic" in2="effect1_dropShadow" result="shape"/>
</filter>
<linearGradient id="paint0_linear" x1="0" y1="48" x2="0" y2="623" gradientUnits="userSpaceOnUse">
<stop stop-color="#FF954D"/>
<stop offset="1" stop-color="#FB6600"/>
</linearGradient>
</defs>
</svg>
