<svg width="98" height="13" viewBox="0 0 98 13" fill="none" xmlns="http://www.w3.org/2000/svg">
<path d="M7 10.8439L10.4983 12.896C11.0503 13.2197 11.7311 12.7386 11.5847 12.129L10.656 8.26087L13.7474 5.65795C14.2346 5.24808 13.9741 4.47008 13.3321 4.41739L9.26276 4.08211L7.67094 0.431595C7.4196 -0.143865 6.5804 -0.143865 6.32906 0.431595L4.73724 4.08211L0.667942 4.41739C0.0258655 4.47008 -0.234626 5.24808 0.252564 5.65795L3.34397 8.26087L2.41535 12.129C2.26891 12.7386 2.94971 13.2197 3.50167 12.896L7 10.8439Z" fill="#FF954D"/>
<path d="M28 10.8439L31.4983 12.896C32.0503 13.2197 32.7311 12.7386 32.5847 12.129L31.656 8.26087L34.7474 5.65795C35.2346 5.24808 34.9741 4.47008 34.3321 4.41739L30.2628 4.08211L28.6709 0.431595C28.4196 -0.143865 27.5804 -0.143865 27.3291 0.431595L25.7372 4.08211L21.6679 4.41739C21.0259 4.47008 20.7654 5.24808 21.2526 5.65795L24.344 8.26087L23.4153 12.129C23.2689 12.7386 23.9497 13.2197 24.5017 12.896L28 10.8439Z" fill="#FF954D"/>
<path d="M49 10.8439L52.4983 12.896C53.0503 13.2197 53.7311 12.7386 53.5847 12.129L52.656 8.26087L55.7474 5.65795C56.2346 5.24808 55.9741 4.47008 55.3321 4.41739L51.2628 4.08211L49.6709 0.431595C49.4196 -0.143865 48.5804 -0.143865 48.3291 0.431595L46.7372 4.08211L42.6679 4.41739C42.0259 4.47008 41.7654 5.24808 42.2526 5.65795L45.344 8.26087L44.4153 12.129C44.2689 12.7386 44.9497 13.2197 45.5017 12.896L49 10.8439Z" fill="#FF954D"/>
<path d="M70 10.8439L73.4983 12.896C74.0503 13.2197 74.7311 12.7386 74.5847 12.129L73.656 8.26087L76.7474 5.65795C77.2346 5.24808 76.9741 4.47008 76.3321 4.41739L72.2628 4.08211L70.6709 0.431595C70.4196 -0.143865 69.5804 -0.143865 69.3291 0.431595L67.7372 4.08211L63.6679 4.41739C63.0259 4.47008 62.7654 5.24808 63.2526 5.65795L66.344 8.26087L65.4153 12.129C65.2689 12.7386 65.9497 13.2197 66.5017 12.896L70 10.8439Z" fill="#FF954D"/>
<path d="M91 10.8439L94.4983 12.896C95.0503 13.2197 95.7311 12.7386 95.5847 12.129L94.656 8.26087L97.7474 5.65795C98.2346 5.24808 97.9741 4.47008 97.3321 4.41739L93.2628 4.08211L91.6709 0.431595C91.4196 -0.143865 90.5804 -0.143865 90.3291 0.431595L88.7372 4.08211L84.6679 4.41739C84.0259 4.47008 83.7654 5.24808 84.2526 5.65795L87.344 8.26087L86.4153 12.129C86.2689 12.7386 86.9497 13.2197 87.5017 12.896L91 10.8439Z" fill="#FF954D"/>
</svg>
